<svg width="30" height="24" viewBox="0 0 30 24" fill="none" xmlns="http://www.w3.org/2000/svg">
<path d="M29.9935 3.03267C29.9152 1.53917 28.7218 0.345735 27.2283 0.267454C22.435 5.06072 19.7432 7.75251 15 12.4957C13.2006 10.6953 4.54746 2.03663 2.77828 0.267395C1.27828 0.345676 0.0847852 1.53911 0.0065625 3.03911C0 3.09132 0 3.14353 0 3.19568V20.8044C0 22.4283 1.31086 23.7392 2.93479 23.7392H3.91307V6.94568L13.6174 16.6435C13.9957 17.0283 14.4979 17.2175 15.0001 17.2175C15.5022 17.2175 16.0044 17.0283 16.3827 16.6435L26.0871 6.93917V23.7392H27.0653C28.6893 23.7392 30.0001 22.4283 30.0001 20.8044V3.19568C30 3.14353 30 3.08482 29.9935 3.03267Z" fill="#303030" fill-opacity="0.57"/>
</svg>
